<svg width="17" height="17" viewBox="0 0 17 17" fill="none" xmlns="http://www.w3.org/2000/svg">
<path fill-rule="evenodd" clip-rule="evenodd" d="M12.375 6.875C12.375 9.91256 9.91256 12.375 6.875 12.375C3.83743 12.375 1.375 9.91256 1.375 6.875C1.375 3.83743 3.83743 1.375 6.875 1.375C9.91256 1.375 12.375 3.83743 12.375 6.875ZM13.75 6.875C13.75 10.6719 10.6719 13.75 6.875 13.75C3.07804 13.75 0 10.6719 0 6.875C0 3.07804 3.07804 0 6.875 0C10.6719 0 13.75 3.07804 13.75 6.875ZM12.3472 13.3194L11.8771 12.8493C12.229 12.5544 12.5544 12.229 12.8493 11.8771L13.3194 12.3472L16.0694 15.0972C16.3379 15.3657 16.3379 15.801 16.0694 16.0694C15.801 16.3379 15.3657 16.3379 15.0972 16.0694L12.3472 13.3194Z" fill="#707070"/>
</svg>
